<svg xmlns="http://www.w3.org/2000/svg" viewBox="0 0 224.2 425.96"><defs><style>.cls-1{fill:#fff;}</style></defs><g id="Layer_2" data-name="Layer 2"><rect x="0.01" y="0.01" width="224.19" height="425.92"/></g><g id="Layer_1" data-name="Layer 1"><path class="cls-1" d="M.73,180.93q0-54-.11-108c0-3.84,1.21-6,4.47-7.94Q57.71,33.24,110.14,1.16c2.46-1.5,4.21-1.61,6.72-.06,34.29,21.19,68.67,42.24,102.92,63.48,1.63,1,3.33,3.52,3.32,5.32-.16,34.32-.58,68.65-.95,103a10.79,10.79,0,0,1-.14,2.6c-10.76-7.17-21.44-14.15-31.78-21.05-24.25-16.18-48.54-32.29-72.68-48.62-4.26-2.88-6.47-2.13-11.35,3.35A121,121,0,0,1,80.33,131a39.08,39.08,0,0,0-6.06,5.13l149.92,116c-.36,3.14-.89,5.69-.92,8.25-.29,32.49-.58,65-.66,97.47,0,5.95-10.39,11.72-10.39,11.72l-91.37,52.84s-8.41,5.3-12.63,2.89C73.53,405.46,38.75,385.75,4.08,365.83c-1.78-1-3.8-3.58-3.81-5.44.08-33-.78-65.94.19-98.85,1.57.87,2.87,1.48,4,2.27Q55.76,298.12,107,332.56c3.54,2.39,5.74,2.17,9-.39,13-10.15,26.19-20,39.84-30.34-1.84-1.39-3.23-2.5-4.67-3.52Q80,247.9,8.77,197.6L5.3,194.43a13.76,13.76,0,0,1-4.46-9.74ZM68,141.32l-55.1,46.57,186,56,.41-1.07Zm142.3,114.32L29.82,201.35l-.49,1,133.35,94.21ZM9,180.81,104.17,99.9,9,75.33ZM214.73,267.6l-93.45,70.57,93.45,18.7ZM214.52,161V74.21L122.33,99.6,214.51,161ZM109,93V11.18L14.76,68.59Zm8.29-.32,92-25.34-92-56.5ZM101.51,338.15,8.41,276.07V356.5Zm6.26,77.59V345.13L17.21,363,17,364.21Zm8.79-70.46v70.83l89.38-51.76-.39-1.24Z" transform="translate(0.01 0.01)"/></g></svg>