<svg id="Layer_1" data-name="Layer 1" xmlns="http://www.w3.org/2000/svg" viewBox="0 0 224.19 425.92"><defs><style>.cls-1{fill:#fff;}</style></defs><path class="cls-1" d="M967.72,413.43c0-36,0-72-.11-108,0-3.84,1.21-6,4.47-7.94q52.62-31.75,105.05-63.83c2.46-1.5,4.21-1.61,6.72-.06,34.29,21.19,68.67,42.24,102.92,63.48,1.63,1,3.33,3.52,3.32,5.32-.16,34.32-.58,68.65-.95,103A10.85,10.85,0,0,1,1189,408c-10.76-7.17-21.44-14.15-31.78-21.05-24.25-16.18-48.54-32.29-72.68-48.62-4.26-2.88-6.47-2.13-11.35,3.35a121.07,121.07,0,0,1-25.87,21.84,38.53,38.53,0,0,0-6.06,5.13l149.92,116c-.36,3.14-.89,5.69-.92,8.25-.29,32.49-.58,65-.66,97.47,0,5.95-10.39,11.72-10.39,11.72l-91.37,52.84s-8.41,5.3-12.63,2.89c-34.69-19.86-69.47-39.57-104.14-59.49-1.78-1-3.8-3.58-3.81-5.44.08-33-.78-65.94.19-98.85,1.57.87,2.87,1.48,4,2.27q51.3,34.3,102.52,68.75c3.54,2.39,5.74,2.17,9-.39,13-10.15,26.19-20,39.84-30.34-1.84-1.39-3.23-2.5-4.67-3.52Q1047,480.39,975.76,430.1l-3.47-3.17a13.77,13.77,0,0,1-4.46-9.74ZM1035,373.82,979.9,420.39l185.95,56,.41-1.07Zm142.3,114.32L996.81,433.85l-.49,1,133.35,94.21ZM976,413.31l95.16-80.91L976,307.83Zm205.72,86.79-93.45,70.57,93.45,18.7Zm-.21-106.56V306.71l-92.19,25.39C1120.47,352.86,1150.44,372.83,1181.5,393.54ZM1076,325.49V243.68l-94.25,57.41Zm8.29-.32,92-25.34-92-56.5Zm-15.79,245.48L975.4,508.57V589Zm6.26,77.59V577.63L984.2,595.47l-.21,1.24Zm8.79-70.46v70.83l89.38-51.76-.39-1.24Z" transform="translate(-966.99 -232.5)"/></svg>